<?xml version="1.0" encoding="utf-8"?>
<!-- Generator: Adobe Illustrator 25.0.1, SVG Export Plug-In . SVG Version: 6.00 Build 0)  -->
<svg version="1.1" id="Layer_1" xmlns="http://www.w3.org/2000/svg" xmlns:xlink="http://www.w3.org/1999/xlink" x="0px" y="0px"
	 viewBox="0 0 298.5 77.8" style="enable-background:new 0 0 298.5 77.8;" xml:space="preserve">
<style type="text/css">
	.st0{fill:#FFFFFF;}
	.st1{fill:#1D1D1B;}
	.st2{fill-rule:evenodd;clip-rule:evenodd;fill:#FFFFFF;}
	.st3{fill-rule:evenodd;clip-rule:evenodd;fill:#1D1D1B;}
	.st4{fill-rule:evenodd;clip-rule:evenodd;fill:#EF7D00;}
	.st5{fill:#EF7D00;}
	.st6{fill:none;stroke:#FFFFFF;stroke-width:2.93;stroke-miterlimit:10;}
</style>
<g>
	<ellipse class="st0" cx="37.1" cy="39.3" rx="36.8" ry="38.1"/>
	<path class="st1" d="M37.1,77.8c-20.5,0-37.1-17.3-37-38.5S16.7,0.8,37.2,0.8S74.3,18,74.3,39.3C74.2,60.6,57.6,77.8,37.1,77.8z
		 M37.1,1.6C17,1.6,0.7,18.5,0.7,39.4s16.4,37.7,36.5,37.7s36.4-16.9,36.4-37.8C73.5,18.5,57.2,1.6,37.1,1.6z"/>
	<path class="st2" d="M37.1,9.8c15.7,0,28.4,13.3,28.4,29.5S52.7,68.8,37,68.8S8.6,55.6,8.6,39.3S21.4,9.8,37.1,9.8L37.1,9.8z"/>
	<path class="st3" d="M37.1,10.6c15.3,0,27.7,12.9,27.6,28.7C64.7,55.2,52.3,68,37,68C21.8,68,9.4,55.1,9.4,39.3
		S21.8,10.6,37.1,10.6z"/>
	<path class="st4" d="M17.6,18.9L13.3,54C6.8,42.6,8.6,28.2,17.6,18.9z"/>
	<path class="st4" d="M14.6,56l11.2-42.9c3.6-1.6,7.4-2.5,11.3-2.5l0,0c2.1,0,4.2,0.2,6.3,0.7L16.9,59C16.1,58.1,15.3,57.1,14.6,56z
		"/>
	<path class="st4" d="M17.9,60l34-44.9c4.8,3.2,8.6,7.8,10.8,13.3L20.1,62C19.4,61.4,18.6,60.7,17.9,60z"/>
	<path class="st4" d="M21.3,62.9l43.4-25.5c0,0.6,0.1,1.3,0.1,1.9c0,5.9-1.8,11.7-5.1,16.5l-34.5,9.4C23.9,64.6,22.6,63.8,21.3,62.9
		z"/>
	<path class="st4" d="M28.8,66.7l22.7-2.8C44.7,68.1,36.4,69.2,28.8,66.7L28.8,66.7z"/>
	<path class="st1" d="M37.1,68.4c-15.5,0-28-13-28-29.1c0-16,12.6-29,28.1-29s28,13,28,29.1C65.1,55.4,52.6,68.4,37.1,68.4z
		 M37.1,11C22,11,9.8,23.7,9.8,39.4c0,15.6,12.3,28.3,27.4,28.3S64.5,55,64.5,39.4C64.4,23.7,52.2,11,37.1,11z"/>
	<path d="M3.5,42.6c0.4,0.2,0.8,0.3,1.2,0.3l0,0c0.6,0,1.2-0.3,1.6-0.7C6.7,41.7,7,41.1,7,40.5c0-1.3-1-2.4-2.3-2.4l0,0
		c-0.6,0-1.2,0.2-1.6,0.7s-0.7,1.1-0.7,1.7c0,0.4,0.1,0.8,0.3,1.2C2.8,42.1,3.1,42.4,3.5,42.6z M4.6,38.6c0.3,0,0.6,0.1,0.9,0.2
		C5.8,39,6,39.2,6.2,39.5s0.2,0.6,0.2,1c0,1-0.8,1.8-1.7,1.9l0,0l0,0c-0.3,0-0.6-0.1-0.9-0.2c-0.3-0.2-0.5-0.4-0.6-0.7
		C3,41.2,3,40.9,3,40.6l0,0c0-0.3,0.1-0.7,0.2-1c0.2-0.3,0.4-0.5,0.6-0.7C4,38.7,4.3,38.6,4.6,38.6L4.6,38.6z"/>
	<polygon points="7.1,35.5 3.1,32.9 3,32.9 2.9,33.5 5.9,35.4 2.5,36.4 2.4,36.9 7.1,35.7 	"/>
	<polygon points="6.7,22.2 6.4,22.8 7.5,24.6 5.5,24.8 5.5,24.8 5.2,25.4 8,25.1 9.9,26 10.1,25.5 8.2,24.6 	"/>
	<polygon points="8.1,29 4.4,27.6 4.2,28.1 8.4,29.7 9.1,27.6 8.7,27.4 	"/>
	<polygon points="6.5,43.3 6.8,45 2.9,45.6 3,46.2 7.3,45.5 7,43.3 	"/>
	<polygon points="7.1,32.2 5.6,31.8 6.1,29.8 5.6,29.6 5.1,31.7 3.9,31.3 4.4,29.3 3.9,29.2 3.2,31.7 7.5,32.9 8.1,30.3 7.6,30.2 	
		"/>
	<path d="M32.8,8.4c0.2,0.1,0.4,0.1,0.6,0.1h0.2c0.3,0,0.6-0.2,0.9-0.5c0.2-0.3,0.3-0.6,0.3-0.9c0-0.2-0.1-0.5-0.3-0.7
		c-0.2-0.3-0.5-0.5-0.9-0.7S33,5.4,33,5.3c-0.1-0.1-0.2-0.2-0.2-0.3c0-0.1-0.1-0.2-0.1-0.3c0-0.1,0-0.3,0.1-0.4s0.2-0.2,0.4-0.2
		c0.1,0,0.2,0,0.4,0.1s0.3,0.2,0.5,0.4l0,0l0.4-0.4l0,0c-0.2-0.2-0.4-0.4-0.6-0.5c-0.2-0.1-0.4-0.1-0.6-0.1c-0.2,0-0.4,0.1-0.5,0.2
		c-0.2,0.1-0.3,0.3-0.4,0.4C32.1,4.6,32,4.8,32.1,5c0,0.3,0.1,0.5,0.3,0.7s0.5,0.4,0.8,0.5c0.3,0.2,0.6,0.4,0.8,0.6
		c0,0.2,0.1,0.3,0.1,0.5c0,0.1,0,0.2-0.1,0.4c-0.1,0.1-0.1,0.2-0.2,0.3c-0.1,0-0.2,0-0.3,0.1c-0.3,0-0.6-0.2-0.9-0.6l0,0l-0.4,0.3
		l0,0C32.3,8.1,32.5,8.3,32.8,8.4z"/>
	<polygon points="29.9,8.6 29.5,7 31.5,6.6 31.4,6 29.4,6.5 29.2,5.2 31.2,4.8 31.1,4.2 28.6,4.8 28.5,4.8 29.5,9.2 29.5,9.3 
		32,8.7 31.9,8.2 	"/>
	<path d="M52.8,12.6l0.2-5l0,0l-0.1-0.1L49,10.6l0.5,0.3l1.2-1l1.6,0.8v1.6L52.8,12.6z M52.4,8.5l-0.1,1.6l-1.2-0.6L52.4,8.5z"/>
	<path d="M19,14.6l0.4-0.3l-1.2-1.7l0.1-0.1l2.4,0.8l0,0l0.5-0.4l-2.4-0.8c0.2-0.2,0.4-0.4,0.6-0.6c0.1-0.2,0.2-0.4,0.2-0.7
		c0-0.2-0.1-0.5-0.2-0.7c-0.2-0.2-0.4-0.4-0.6-0.5c-0.3-0.1-0.5-0.1-0.8,0.1c-0.3,0.1-0.6,0.3-0.8,0.5l-0.7,0.5L19,14.6L19,14.6z
		 M17.2,11l0.6-0.4c0.2-0.1,0.4-0.2,0.6-0.3c0.1,0,0.3,0,0.4,0s0.2,0.1,0.3,0.2c0.1,0.1,0.1,0.2,0.1,0.4c0,0.1,0,0.3-0.1,0.4
		c-0.1,0.2-0.3,0.3-0.5,0.4L18,12.1L17.2,11z"/>
	<path d="M16.2,17l0.4-0.4L15.3,15l0.2-0.2c0.3-0.2,0.6-0.5,0.8-0.8c0.2-0.2,0.3-0.5,0.2-0.8c0-0.3-0.1-0.5-0.3-0.7
		c-0.2-0.2-0.4-0.4-0.7-0.4s-0.5,0-0.7,0.1c-0.3,0.2-0.6,0.4-0.8,0.6l-0.7,0.6L16.2,17L16.2,17z M14.1,13.5l0.6-0.5
		c0.2-0.1,0.3-0.3,0.5-0.4c0.1,0,0.3,0,0.4,0c0.1,0,0.2,0.1,0.3,0.2C16,13,16,13.2,16,13.3s0,0.3-0.1,0.4c-0.1,0.2-0.3,0.3-0.4,0.5
		L15,14.6L14.1,13.5z"/>
	<path d="M22.1,11.7c0.2,0.1,0.5,0.1,0.7,0.1c0.4,0,0.7-0.1,1.1-0.3c1.1-0.6,1.6-2,1.1-3.2c-0.3-0.6-0.8-1-1.4-1.2
		C23,6.9,22.3,7,21.7,7.3l0,0c-0.7,0.4-1.2,1.2-1.2,2c0,0.4,0.1,0.9,0.3,1.2C21,11.1,21.5,11.5,22.1,11.7z M21,9.3
		c0-0.3,0.1-0.6,0.3-0.9c0.2-0.3,0.4-0.5,0.7-0.6c0.3-0.2,0.6-0.2,0.9-0.2s0.6,0.1,0.9,0.3c0.5,0.4,0.8,1,0.8,1.7
		c0,0.3-0.1,0.6-0.3,0.9c-0.2,0.3-0.4,0.5-0.7,0.6c-0.9,0.5-1.9,0.1-2.4-0.8l0,0C21.1,10,21,9.6,21,9.3z"/>
	<polygon points="46.7,6.3 48.3,10.3 48.3,10.3 48.5,10.4 49.8,6 49.4,5.9 48.4,9.1 46.7,5 46.5,4.9 45.2,9.3 45.7,9.5 	"/>
	<polygon points="26.7,10.2 27.2,10 26.6,7.9 28.2,7.3 28,6.8 26.4,7.4 26,6.1 27.7,5.6 27.5,5.1 25.3,5.8 26.7,10.1 	"/>
	<path d="M42.1,8.8c0.1,0,0.3,0,0.4,0c1.3,0,2.3-1.1,2.3-2.4c0-0.5-0.2-1-0.4-1.4c-0.4-0.5-0.9-0.9-1.5-1l0,0
		c-0.8-0.2-1.6,0.2-2.2,0.8c-0.3,0.3-0.4,0.7-0.5,1.1c-0.1,0.6,0,1.3,0.4,1.8C40.9,8.3,41.5,8.7,42.1,8.8z M40.7,6.1
		c0.1-0.3,0.2-0.6,0.4-0.9s0.5-0.4,0.8-0.6c0.2-0.1,0.4-0.1,0.6-0.1c0.1,0,0.2,0,0.3,0c0.3,0.1,0.6,0.2,0.8,0.4
		c0.5,0.4,0.7,1.1,0.6,1.8C44.1,7,44,7.3,43.8,7.6C43.6,7.8,43.3,8,43,8.1s-0.6,0.1-0.9,0.1C41.2,8.1,40.6,7.1,40.7,6.1L40.7,6.1
		L40.7,6.1z"/>
	<polygon points="55.4,13.8 54,12.8 56,9.4 55.6,9.1 53.3,13 53.2,13 55.1,14.2 	"/>
	<path d="M36.8,5.6c-0.4-0.3-0.5-0.4-0.6-0.4C36.1,5.1,36.1,5,36,4.9c0-0.1,0-0.2,0-0.3s0-0.3,0.1-0.4S36.3,4,36.5,4
		c0.1,0,0.2,0,0.4,0.1c0.2,0.1,0.3,0.3,0.4,0.4l0,0l0.4-0.3l0,0c-0.2-0.2-0.4-0.4-0.6-0.6c-0.2-0.1-0.4-0.2-0.6-0.2l0,0
		c-0.2,0-0.4,0.1-0.6,0.2c-0.2,0.1-0.3,0.2-0.4,0.4c-0.1,0.2-0.1,0.4-0.1,0.6c0,0.3,0.1,0.5,0.2,0.7c0.2,0.2,0.4,0.4,0.7,0.6
		s0.5,0.4,0.7,0.7c0.1,0.1,0.1,0.3,0.1,0.4c0,0.3-0.1,0.5-0.4,0.6c-0.1,0.1-0.3,0.1-0.4,0.1c-0.3,0-0.6-0.2-0.9-0.7l0,0l-0.5,0.3
		l0,0C35,7.6,35.3,7.8,35.5,8c0.2,0.1,0.5,0.2,0.7,0.2l0,0c0.3,0,0.7-0.1,0.9-0.4c0.2-0.2,0.4-0.6,0.4-0.9s-0.1-0.5-0.2-0.7
		C37.3,6.1,37.1,5.8,36.8,5.6z"/>
	<polygon points="39.4,3.8 39.4,3.8 38.9,3.7 38.6,8.2 38.6,8.3 39.1,8.3 	"/>
	<path d="M71.9,39.7c-0.1-0.2-0.2-0.3-0.4-0.4c-0.2-0.1-0.3-0.2-0.5-0.2l0,0c-0.2,0-0.5,0.1-0.7,0.2c-0.2,0.2-0.4,0.4-0.6,0.7
		s-0.4,0.5-0.7,0.7c-0.1,0.1-0.3,0.1-0.4,0.1s-0.2,0-0.3-0.1c-0.1-0.1-0.2-0.2-0.2-0.3C68,40.3,68,40.1,68,40c0-0.3,0.2-0.6,0.7-0.9
		l0,0l-0.3-0.5l0,0c-0.3,0.1-0.5,0.4-0.7,0.6c-0.1,0.2-0.2,0.5-0.2,0.8c0,0.4,0.1,0.7,0.3,1c0.2,0.3,0.5,0.4,0.8,0.4l0,0
		c0.2,0,0.5-0.1,0.7-0.2c0.3-0.2,0.6-0.5,0.8-0.8c0.3-0.4,0.4-0.5,0.4-0.6c0.1-0.1,0.2-0.2,0.3-0.2c0.1,0,0.2-0.1,0.3-0.1
		c0.1,0,0.3,0.1,0.4,0.2c0.1,0.1,0.1,0.3,0.1,0.4c0,0.1,0,0.3-0.1,0.4c-0.1,0.2-0.3,0.3-0.4,0.4l0,0l0.3,0.5l0,0
		c0.2-0.2,0.4-0.4,0.6-0.6c0.1-0.2,0.2-0.4,0.2-0.6C72,40.1,72,39.9,71.9,39.7z"/>
	<polygon points="67.4,42.2 67.4,42.8 71.7,43.1 71.8,43.1 71.8,42.6 67.5,42.2 	"/>
	<path d="M63.6,20.6l2.1-1.7l-0.3-0.4l-2.1,1.7c-0.2,0.2-0.3,0.3-0.5,0.4c-0.1,0.1-0.3,0.1-0.4,0.1l0,0c-0.1,0-0.3,0-0.4-0.1
		c-0.1-0.1-0.2-0.2-0.3-0.3c-0.1-0.1-0.2-0.3-0.2-0.5c-0.1-0.3,0-0.6,0.2-0.8c0.1-0.1,0.3-0.3,0.4-0.4l2.1-1.7l-0.3-0.4l-2.1,1.7
		c-0.3,0.2-0.5,0.4-0.7,0.7c-0.2,0.3-0.2,0.6-0.2,0.9s0.2,0.7,0.4,0.9c0.2,0.3,0.5,0.4,0.7,0.5c0.1,0,0.2,0,0.3,0
		c0.2,0,0.3,0,0.5-0.1C63.1,21,63.4,20.8,63.6,20.6z"/>
	<polygon points="67.2,34.7 67.7,34.6 67.4,32.6 68.9,32.2 69.3,34.3 69.8,34.2 69.4,32.1 70.7,31.9 71.1,34 71.6,33.9 71.1,31.3 
		66.7,32.1 	"/>
	<polygon points="68.3,23.5 68.1,23 65.3,24.7 66.7,20.5 66.7,20.5 66.6,20.4 62.8,22.6 62.7,22.7 63,23.1 65.8,21.5 64.4,25.6 
		64.5,25.8 	"/>
	<polygon points="71,45 67.2,44.3 67.2,44.3 67.1,44.8 70.9,45.5 70.8,46.5 71.3,46.6 71.7,44.1 71.7,44.1 71.2,44 	"/>
	<path d="M67.3,36l2-0.2V36l-1.9,1.8l0,0l0.1,0.7l1.9-1.8c0,0.3,0.1,0.5,0.2,0.8c0.1,0.2,0.3,0.4,0.5,0.5s0.4,0.1,0.7,0.1
		c0.3,0,0.5-0.1,0.7-0.3s0.3-0.4,0.3-0.7s0-0.7,0-1l-0.1-1l-4.4,0.4L67.3,36z M70.3,37.4c-0.1-0.1-0.2-0.2-0.3-0.3
		c-0.1-0.2-0.1-0.4-0.1-0.6l-0.1-0.7l1.4-0.1l0.1,0.7c0,0.2,0,0.4,0,0.6c0,0.1-0.1,0.2-0.2,0.3s-0.2,0.1-0.4,0.1
		C70.6,37.5,70.4,37.5,70.3,37.4z"/>
	<polygon points="66.6,47.4 66.4,47.9 68.5,48.5 70.3,50.5 70.5,49.9 69.1,48.4 71.1,47.8 71.2,47.1 68.6,48 	"/>
	<polygon points="70.8,30 70.6,29.5 67,29.2 69.6,26.7 69.7,26.7 69.5,26.1 65.9,29.5 65.9,29.5 66,29.7 70.7,30 	"/>
	<polygon points="69.1,25.2 68.9,24.7 64.9,26.6 64.8,26.7 65.1,27.2 69,25.2 	"/>
	<path d="M52.6,66L52.6,66l0.4,5.2l0.5-0.3l-0.1-1.6l1.6-1l1.3,0.9l0.5-0.3L52.6,66L52.6,66z M54.4,67.9l-1.2,0.7L53.1,67L54.4,67.9
		z"/>
	<path d="M39.1,74.7c-0.1-0.5-0.2-1-0.2-1.5c0-0.6,0-1.1,0.1-1.7c0.1-0.5,0.2-1,0.4-1.4V70h-0.6l0,0c-0.2,0.5-0.3,1-0.4,1.5
		c-0.1,0.6-0.1,1.1-0.1,1.7c0,0.5,0.1,1,0.2,1.5c0.1,0.4,0.2,0.9,0.4,1.3l0,0h0.6v-0.1C39.4,75.6,39.2,75.1,39.1,74.7z"/>
	<polygon points="40.4,70.1 40.9,70 41.3,74.6 40.7,74.6 	"/>
	<path d="M49.2,68.8c-0.3-0.3-0.8-0.4-1.2-0.4l0,0c-0.5,0-0.9,0.1-1.4,0.3L45.7,69l1.5,4.3l0,0l1.3-0.5c0.4-0.1,0.8-0.4,1.1-0.7
		c0.2-0.3,0.4-0.6,0.5-1C50.3,70.3,49.9,69.4,49.2,68.8L49.2,68.8z M47.5,72.7l-1.1-3.3l0.2-0.1c0.4-0.2,0.8-0.3,1.3-0.3
		c0.3,0,0.7,0.1,1,0.3c0.3,0.2,0.5,0.6,0.6,0.9s0.2,0.7,0.1,1.1c-0.1,0.3-0.3,0.6-0.5,0.8c-0.3,0.2-0.7,0.4-1.1,0.5L47.5,72.7z"/>
	<polygon points="44.5,69.3 45.2,72.6 41.8,69.9 41.8,69.9 41.6,70 42.5,74.4 42.5,74.5 43,74.3 42.4,71.1 45.7,73.8 45.8,73.8 
		45.9,73.7 45,69.2 	"/>
	<path d="M17.9,64.8c0.4-0.4,0.4-1,0.1-1.5c-0.2-0.3-0.5-0.5-0.7-0.7L16.6,62l-2.9,3.5l0.4,0.4l1.3-1.6l0.2,0.2
		c0.3,0.3,0.6,0.5,0.9,0.7c0.2,0.1,0.5,0.2,0.8,0.1C17.4,65.1,17.7,65,17.9,64.8z M17.6,64c0,0.1-0.1,0.3-0.2,0.4s-0.2,0.2-0.3,0.2
		c-0.1,0-0.3,0-0.4,0c-0.2-0.1-0.4-0.2-0.5-0.4l-0.5-0.5l0.9-1.1l0.5,0.5c0.2,0.1,0.3,0.3,0.4,0.5S17.6,63.9,17.6,64L17.6,64z"/>
	<path d="M57.9,67.6c-0.2-0.5-0.5-1-0.8-1.4s-0.6-0.8-1-1.2c-0.3-0.3-0.7-0.6-1-0.8l0,0l-0.5,0.3h0.1c0.4,0.2,0.7,0.5,1,0.8
		c0.4,0.4,0.7,0.7,1,1.2c0.3,0.4,0.6,0.9,0.8,1.4s0.4,0.9,0.5,1.4v0.1l0.5-0.4l0,0C58.3,68.6,58.1,68.1,57.9,67.6z"/>
	<polygon points="50.3,67.2 49.8,67.4 51.6,71.6 52.1,71.4 	"/>
	<polygon points="25,67.7 23.5,70.7 22.5,66.4 22.5,66.3 22.3,66.3 20.3,70.3 20.3,70.3 20.8,70.6 22.2,67.6 23.2,71.9 23.2,71.9 
		23.4,72 25.4,67.9 	"/>
	<path d="M21.1,65.6l-1.5,2.3c-0.1,0.2-0.2,0.4-0.4,0.5c-0.1,0.1-0.2,0.2-0.4,0.2c-0.1,0-0.3,0-0.4,0s-0.3-0.1-0.4-0.1
		c-0.1-0.1-0.2-0.2-0.3-0.4c-0.1-0.1-0.1-0.3-0.1-0.4c0-0.2,0-0.3,0.1-0.4c0.1-0.2,0.2-0.3,0.3-0.5l1.5-2.3l-0.4-0.3l-1.5,2.3
		c-0.2,0.3-0.3,0.5-0.5,0.8c-0.1,0.3-0.1,0.6,0.1,0.9c0.1,0.3,0.3,0.6,0.6,0.8c0.2,0.2,0.5,0.3,0.8,0.3h0.1c0.3,0,0.5-0.1,0.7-0.3
		c0.2-0.2,0.5-0.5,0.6-0.8l1.5-2.3L21.1,65.6z"/>
	<path d="M27.3,68.5l-0.9,2.9c-0.1,0.2-0.1,0.5-0.3,0.7c-0.1,0.2-0.4,0.3-0.6,0.2c-0.1,0-0.2-0.1-0.2-0.1c-0.2-0.1-0.3-0.3-0.4-0.5
		l0,0L24.5,72l0,0c0.1,0.2,0.3,0.4,0.4,0.5s0.3,0.2,0.5,0.3c0.1,0,0.3,0.1,0.4,0.1c0.3,0,0.6-0.1,0.7-0.4c0.2-0.3,0.3-0.6,0.4-0.9
		l0.9-2.9L27.3,68.5z"/>
	<path d="M35,72.5c-0.1-0.1-0.3-0.2-0.4-0.3c0.3-0.2,0.6-0.5,0.6-0.9c0-0.2,0-0.4-0.1-0.6s-0.2-0.4-0.4-0.5S34.2,70,33.9,70L33,69.9
		l-0.6,4.5l1.2,0.2c0.1,0,0.2,0,0.3,0c0.3,0,0.6-0.1,0.8-0.3c0.3-0.2,0.5-0.5,0.5-0.9c0-0.2,0-0.4,0-0.5
		C35.2,72.8,35.1,72.7,35,72.5z M33.4,72.4c0.3,0,0.5,0.1,0.7,0.2s0.3,0.2,0.5,0.4c0.1,0.1,0.1,0.3,0.1,0.5c0,0.1-0.1,0.3-0.2,0.4
		c-0.1,0.1-0.2,0.2-0.4,0.2s-0.5,0-0.7,0L33,74l0.2-1.6H33.4z M34.5,71.7c-0.1,0.1-0.2,0.2-0.3,0.2c-0.2,0-0.4,0-0.6,0h-0.2l0.2-1.3
		l0.5,0.1c0.2,0,0.4,0.1,0.6,0.2c0.1,0.1,0.2,0.3,0.1,0.5C34.6,71.5,34.6,71.6,34.5,71.7z"/>
	<path d="M30.4,69.4l-3.1,4l0.6,0.1l1-1.3l1.8,0.4l0.3,1.6l0.6,0.1l-1-5L30.4,69.4z M30.5,72.1l-1.3-0.3l1-1.3L30.5,72.1z"/>
	<path class="st3" d="M9.9,56.7c0.7,0,1.2,0.6,1.2,1.3s-0.6,1.3-1.2,1.3c-0.7,0-1.2-0.6-1.2-1.3C8.6,57.3,9.2,56.7,9.9,56.7z"/>
	<path class="st1" d="M9.9,59.4c-0.7,0-1.3-0.6-1.3-1.4c0-0.8,0.6-1.4,1.3-1.4s1.3,0.6,1.3,1.4C11.2,58.7,10.6,59.4,9.9,59.4z
		 M9.9,56.8c-0.6,0-1.1,0.5-1.1,1.2s0.5,1.2,1.2,1.2c0.6,0,1.1-0.5,1.1-1.2C11,57.3,10.5,56.8,9.9,56.8z"/>
	<path class="st3" d="M64,56.7c0.7,0,1.2,0.6,1.2,1.3s-0.6,1.3-1.2,1.3c-0.7,0-1.2-0.6-1.2-1.3C62.8,57.3,63.3,56.7,64,56.7z"/>
	<path class="st1" d="M64,59.4c-0.7,0-1.3-0.6-1.3-1.4s0.6-1.4,1.3-1.4c0.7,0,1.3,0.6,1.3,1.4C65.4,58.7,64.8,59.4,64,59.4z
		 M64,56.8c-0.6,0-1.1,0.5-1.1,1.2s0.5,1.2,1.2,1.2c0.6,0,1.1-0.5,1.1-1.2S64.7,56.8,64,56.8z"/>
	<path class="st5" d="M94.2,26h12.6v7.3H86.9v-31h7.3C94.2,2.3,94.2,26,94.2,26z"/>
	<path class="st5" d="M123.2,2c7.1,0,10.6,5.8,10.5,11.3c-0.1,5.4-3.6,10.8-10.5,10.8h-4.8v9.2h-7.3V2H123.2z M123.2,17
		c2.3,0,3.4-1.9,3.4-3.7s-1.1-3.8-3.4-3.8h-4.8V17H123.2z"/>
	<path class="st5" d="M137.8,23.3v-21h7.3v21c0,4.7,8.5,4.6,8.5,0v-21h7.3v21c0,7-5.8,10.5-11.6,10.4S137.8,30.3,137.8,23.3z"/>
	<path class="st0" d="M181.4,1.8c8.5-0.1,15.4,6.9,15.5,15.7c0,0.1,0,0.2,0,0.3c0,9-6.9,15.9-15.5,15.9s-15.5-6.8-15.5-15.9
		c-0.1-8.8,6.7-15.9,15.1-16C181.2,1.8,181.3,1.8,181.4,1.8z M181.2,26.6c4.2,0,8.3-2.9,8.3-8.7c0-5.9-4.2-8.9-8.3-8.8
		c-4.1,0.1-8,3-8,8.8S177.2,26.5,181.2,26.6z"/>
	<path class="st0" d="M206.4,9.3v2.4c1.6-2.1,4.4-2.7,6.8-2.7c6.6,0.1,8.4,5.1,8.3,11.1v13.2h-6.8V20.1c0-3.2-1.8-4.7-3.6-4.7
		c-2.5,0.1-4.5,2.2-4.4,4.8v13h-7.1v-24L206.4,9.3z"/>
	<path class="st0" d="M232.4,2.3v31h-6.8v-31C225.6,2.3,232.4,2.3,232.4,2.3z"/>
	<path class="st0" d="M240,0c2,0,4.2,1.3,4.2,4.1c0,2.6-1.9,3.8-3.9,3.9c-2,0-4.2-1.2-4.2-3.9S238.1,0,240,0z M236.8,9.3v24h6.8v-24
		C243.6,9.3,236.8,9.3,236.8,9.3z"/>
	<path class="st0" d="M254.9,9.3v2.4c1.6-2.1,4.4-2.7,6.8-2.7c6.6,0.1,8.4,5.1,8.3,11.1v13.2h-6.8V20.1c0-3.2-1.8-4.7-3.6-4.7
		c-2.5,0.1-4.5,2.2-4.4,4.8v13h-7.1v-24L254.9,9.3z"/>
	<path class="st0" d="M297.2,24h-16.6c0.8,2.2,2.9,3.3,5,3.4c1.5,0,2.9-0.5,3.9-1.6h7.3c-1.8,5.3-6.7,7.9-11.5,7.8
		c-5.9-0.1-11.7-4.2-11.7-12.3c0-8.2,6-12.3,12.1-12.3c5.9,0,11.8,4.1,11.8,12.3C297.5,22.2,297.4,23.1,297.2,24z M290.1,18.6
		c-0.6-2.4-2.5-3.5-4.7-3.5c-2.1-0.1-4,1.4-4.5,3.5H290.1z"/>
	<line class="st6" x1="298.1" y1="42.4" x2="86.1" y2="42.4"/>
	<g>
		<path class="st0" d="M93.2,52.7c-0.2-1-1.3-1.5-2.3-1.5c-0.8,0-1.5,0.3-2,0.9c-0.2,0.3-0.3,0.7-0.3,1.1c0.1,1.2,1.3,1.3,2.5,1.4
			c1.5,0.2,3.4,0.6,3.9,2.5c0,0.3,0.1,0.5,0.1,0.8c0,2.2-2.1,3.5-4.2,3.5c-1.7,0-3.8-1.1-4-3.1V58h1.6v0.2v-0.1
			c0.1,1.1,1.4,1.6,2.4,1.6c1.2,0,2.5-0.7,2.5-1.9c0-0.1,0-0.3-0.1-0.4c-0.2-0.9-1.3-1-2.5-1.1c-1.7-0.2-3.8-0.6-4-3l0,0
			c-0.1-0.8,0.1-1.6,0.6-2.2c0.8-1,2.1-1.6,3.4-1.5c1.7,0,3.5,0.9,3.8,3L93.2,52.7z"/>
		<path class="st0" d="M105.9,52.4v9h-1.6v-1.2c-0.6,1-2,1.3-3.1,1.4c-3,0-4.6-2.2-4.6-4.7s1.7-4.6,4.6-4.6c1.1,0,2.4,0.3,3.1,1.3
			v-1.2H105.9z M101.2,53.6c-1.6-0.1-3,1.2-3,2.9c0,0.1,0,0.2,0,0.2c-0.1,1.8,1.2,3.3,2.9,3.3c1.7,0.1,3.1-1.3,3.2-3.1
			c0-0.1,0-0.2,0-0.2C104.3,55,103,53.5,101.2,53.6C101.3,53.6,101.2,53.6,101.2,53.6z"/>
		<path class="st0" d="M109.9,52.2v1.3c0.5-0.8,1.5-1.3,2.4-1.3c1.2,0,2.3,0.3,2.9,1.6c0.6-1,1.6-1.6,2.8-1.6c2.4,0,3.4,1.7,3.4,4
			v5.1h-1.6v-5.1c0-1.3-0.3-2.5-1.8-2.5s-2.3,1.1-2.3,2.6v5.1h-1.6v-5c0-1.3-0.5-2.6-1.9-2.6s-2.4,1-2.4,2.7v4.9h-1.6v-9.1
			L109.9,52.2z"/>
		<path class="st0" d="M132.2,57.2h-7.3c0,1.8,1.6,2.8,2.9,2.8c1.1,0.1,2.1-0.5,2.6-1.5h1.6c-0.6,1.8-2.3,3-4.2,2.9
			c-2.2,0-4.5-1.6-4.5-4.6s2.2-4.6,4.5-4.6c2.1,0,4.2,1.4,4.4,4.2C132.2,56.7,132.2,57,132.2,57.2z M130.6,55.9
			c-0.3-1.6-1.5-2.2-2.8-2.2s-2.5,0.6-2.9,2.2H130.6z"/>
		<path class="st0" d="M142.4,49.6c3.7,0,5.5,3,5.5,5.9s-1.9,5.8-5.5,5.8h-4V49.6H142.4z M142.4,59.6c2.6,0,3.9-2.1,3.9-4.1
			c0-2.1-1.3-4.2-3.9-4.2H140v8.3H142.4z"/>
		<path class="st0" d="M158.3,57.2H151c0,1.8,1.6,2.8,2.9,2.8c1.1,0.1,2.1-0.5,2.6-1.5h1.6c-0.6,1.8-2.3,3-4.2,2.9
			c-2.2,0-4.5-1.6-4.5-4.6s2.2-4.6,4.5-4.6c2.1,0,4.2,1.4,4.4,4.2C158.3,56.7,158.3,57,158.3,57.2z M156.7,55.9
			c-0.3-1.6-1.5-2.2-2.8-2.2s-2.5,0.6-2.9,2.2H156.7z"/>
		<path class="st0" d="M164.2,64.8c-2.2,0-4.2-0.9-4.2-2.9h1.5c0,1.1,1.5,1.5,2.6,1.5c1.4,0,2.9-0.7,2.9-2.4v-1
			c-0.8,1-1.9,1.3-2.9,1.3c-2.9,0-4.6-2-4.6-4.4s1.6-4.7,4.6-4.7c1.1,0,2.3,0.4,2.9,1.3v-1.2h1.5v8.6
			C168.7,63.8,166.4,64.8,164.2,64.8z M167.1,56.6c0.1-1.5-1-2.9-2.5-3c-0.1,0-0.2,0-0.3,0c-1.7-0.1-3.1,1.3-3.1,3
			c0,0.1,0,0.1,0,0.2c0,1.6,1.2,3,2.8,3c0.1,0,0.1,0,0.2,0C166.1,59.9,167.1,58.3,167.1,56.6L167.1,56.6z"/>
		<path class="st0" d="M172.6,52.4v1.1c0.8-1.2,2.1-1.5,3.5-1.2v1.4c-1.4-0.5-2.9,0.4-3.4,1.8c-0.1,0.3-0.1,0.6-0.1,0.9v4.9h-1.5v-9
			L172.6,52.4L172.6,52.4z"/>
		<path class="st0" d="M186,57.2h-7.3c0,1.8,1.6,2.8,2.9,2.8c1.1,0.1,2.1-0.5,2.6-1.5h1.6c-0.6,1.8-2.3,3-4.2,2.9
			c-2.2,0-4.5-1.6-4.5-4.6s2.2-4.6,4.5-4.6c2.1,0,4.2,1.4,4.4,4.2C186.1,56.7,186.1,57,186,57.2z M184.4,55.9
			c-0.3-1.6-1.5-2.2-2.8-2.2c-1.2,0-2.5,0.6-2.9,2.2H184.4z"/>
		<path class="st0" d="M196.5,57.2h-7.3c0,1.8,1.6,2.8,2.9,2.8c1.1,0.1,2.1-0.5,2.6-1.5h1.6c-0.6,1.8-2.3,3-4.2,2.9
			c-2.2,0-4.5-1.6-4.5-4.6s2.2-4.6,4.5-4.6c2.1,0,4.2,1.4,4.4,4.2C196.6,56.7,196.6,57,196.5,57.2z M194.9,55.9
			c-0.3-1.6-1.5-2.2-2.8-2.2s-2.5,0.6-2.9,2.2H194.9z"/>
		<path class="st0" d="M197.3,63l1.2-3h1.7l-1.5,3H197.3z"/>
		<path class="st0" d="M206.3,61.3V49.7h1.2l5.4,8.2v-8.2h1.6v11.6h-1.3l-5.4-8.1v8.1H206.3z"/>
		<path class="st0" d="M221.4,61.5c-2.3,0-4.6-1.6-4.6-4.6s2.3-4.6,4.7-4.6s4.6,1.6,4.6,4.6S223.8,61.5,221.4,61.5z M221.4,60
			c1.7,0,3.1-1.4,3.1-3.2s-1.4-3.2-3.1-3.2c-1.7,0-3.1,1.4-3.1,3.2l0,0c0,1.7,1.2,3.1,2.9,3.2C221.3,60,221.3,60,221.4,60L221.4,60z
			"/>
		<path class="st0" d="M229.1,52.4l0.7,2.5l1,3.8l1.7-6.3h1.4l1.7,6.3l1-3.8l0.7-2.5h1.6l-2.8,9h-1.2l-1.1-3.5l-0.8-2.7l-0.7,2.7
			l-1.1,3.5H230l-2.8-9H229.1z"/>
		<path class="st0" d="M249.9,49.5c3.2,0,5.8,2.7,5.8,6s-2.6,6-5.8,6s-5.8-2.7-5.8-6l0,0C244.1,52.2,246.7,49.5,249.9,49.5
			L249.9,49.5z M249.9,59.8c2.3,0,4.2-1.9,4.2-4.3c0-2.4-1.8-4.3-4.1-4.3s-4.2,1.9-4.2,4.3l0,0C245.7,57.9,247.6,59.8,249.9,59.8
			L249.9,59.8z"/>
		<path class="st0" d="M259.1,52.4v1.1c0.6-1,1.6-1.2,2.7-1.2c2.6,0,3.8,1.7,3.8,4.3v4.8H264v-4.8c0-1.7-0.4-2.8-2.2-2.8
			c-1.7,0-2.6,1.2-2.6,2.8v4.9h-1.6v-9L259.1,52.4L259.1,52.4z"/>
		<path class="st0" d="M269.5,61.3h-1.6V49.7h1.6V61.3z"/>
		<path class="st0" d="M273.7,50.1c0,1.3-1.9,1.3-1.9,0S273.7,48.8,273.7,50.1z M273.6,52.3H272v9.1h1.6V52.3z"/>
		<path class="st0" d="M277.8,52.4v1.1c0.6-1,1.6-1.2,2.7-1.2c2.6,0,3.8,1.7,3.8,4.3v4.8h-1.5v-4.8c0-1.7-0.4-2.8-2.3-2.8
			c-1.7,0-2.6,1.2-2.6,2.8v4.9h-1.6v-9L277.8,52.4L277.8,52.4z"/>
		<path class="st0" d="M294.9,57.2h-7.3c0,1.8,1.6,2.8,2.9,2.8c1.1,0.1,2.1-0.5,2.6-1.5h1.6c-0.6,1.8-2.3,3-4.2,2.9
			c-2.2,0-4.5-1.6-4.5-4.6s2.2-4.6,4.5-4.6c2.1,0,4.2,1.4,4.4,4.2C294.9,56.7,294.9,57,294.9,57.2z M293.3,55.9
			c-0.3-1.6-1.5-2.2-2.8-2.2c-1.2,0-2.5,0.6-2.9,2.2H293.3z"/>
		<path class="st0" d="M298.4,60.4c0,0.6-0.5,1-1.1,0.9c-0.5,0-0.9-0.4-0.9-0.9c0-0.6,0.4-1.1,0.9-1.1s1,0.4,1.1,0.9
			C298.4,60.3,298.4,60.3,298.4,60.4z"/>
	</g>
	<g>
		<path class="st0" d="M217.5,74.8h3.4v1.1h-4.5v-7.7h4.5v1.1h-3.4v2.1h3.3v1.1h-3.3V74.8z"/>
		<path class="st0" d="M223.4,70v0.7c0.4-0.6,1.1-0.9,1.7-0.8c1.7,0,2.5,1.1,2.5,2.8v3.2h-1v-3.1c0-1.1-0.3-1.8-1.5-1.9
			c-0.9-0.1-1.7,0.7-1.7,1.6c0,0.1,0,0.2,0,0.2v3.2h-1V70H223.4z"/>
		<path class="st0" d="M230.7,68.7V70h1.2v0.8h-1.2v3.3c0,0.9,0.5,0.9,1.3,0.8v0.9c-1.4,0.1-2.3-0.2-2.3-1.7v-3.3h-0.8V70h0.8v-1.1
			L230.7,68.7z"/>
		<path class="st0" d="M234.4,68.5c0,0.4-0.3,0.7-0.6,0.7c-0.4,0-0.6-0.3-0.6-0.7C233.1,67.7,234.4,67.7,234.4,68.5z M234.3,69.9h-1
			v5.9h1V69.9z"/>
		<path class="st0" d="M237.5,68.7V70h1.2v0.8h-1.2v3.3c0,0.9,0.5,0.9,1.3,0.8v0.9c-1.4,0.1-2.3-0.2-2.3-1.7v-3.3h-0.8V70h0.8v-1.1
			L237.5,68.7z"/>
		<path class="st0" d="M241,75.9h-1v-7.6h1V75.9z"/>
		<path class="st0" d="M248.3,73.2h-4.8c0.1,1,0.9,1.9,1.9,1.8c0.7,0,1.3-0.3,1.7-1h1.1c-0.6,1.6-2.3,2.3-3.8,1.7
			c-1.1-0.5-1.8-1.6-1.9-2.8c0-1.7,1.3-3,3-3c1.5,0,2.7,1.2,2.9,2.7C248.4,72.9,248.4,73,248.3,73.2z M247.3,72.3
			c-0.2-0.9-0.9-1.5-1.8-1.4c-0.9-0.1-1.7,0.6-1.9,1.4H247.3z"/>
		<path class="st0" d="M254.5,68.3h1v7.6h-1v-0.8c-0.5,0.6-1.2,0.9-1.9,0.9c-2,0-3-1.3-3-3.1s1.1-3,3-3c0.7-0.1,1.4,0.3,1.9,0.9
			V68.3z M252.5,70.8c-1.1,0-2,0.9-2,2.1l0,0c0,1.1,0.9,2,2,2s1.9-1,1.9-2.1C254.4,71.7,253.6,70.9,252.5,70.8z"/>
		<path class="st0" d="M261.2,70.8c0.5-0.6,1.2-0.9,1.9-0.9c1.5-0.1,2.8,1.1,2.9,2.7c0,0.1,0,0.2,0,0.3c0,1.6-1,3.1-2.9,3.1
			c-0.7,0-1.4-0.3-1.9-0.9v0.8h-1v-7.6h1V70.8z M263,75c1.1,0.1,2.1-0.8,2.2-1.9c0.1-1.2-0.7-2.2-1.8-2.3c-1.1-0.1-2.1,0.8-2.2,1.9
			c0,0.1,0,0.1,0,0.2C261.1,74,261.9,74.9,263,75C262.9,75,263,75,263,75L263,75z"/>
		<path class="st0" d="M270,72.5l1-2.6h1.1l-3,7.8H268l0.8-2.1l-2.2-5.6h1.1l1,2.6l0.6,1.9L270,72.5z"/>
		<path class="st0" d="M276.1,73.6v-5.4h1.1v5.4c0,0.8,0.9,1.2,1.6,1.2s1.6-0.4,1.6-1.3v-5.4h1.1v5.4c0,1.5-1.4,2.3-2.7,2.3
			C277.6,75.9,276.1,75.1,276.1,73.6z"/>
		<path class="st0" d="M289,71c-0.3-1.2-1.5-1.7-2.4-1.7c-1.5,0.1-2.7,1.4-2.6,2.9s1.2,2.6,2.6,2.7c1,0,2-0.6,2.3-1.6h-2.8v-1.1h4
			c0,0.5-0.1,0.9-0.2,1.3l0,0c-0.6,1.5-1.9,2.4-3.4,2.5c-2.1,0-3.8-1.8-3.8-3.9c0-2.2,1.7-3.9,3.8-3.9c1.4,0,3.2,0.7,3.6,2.8L289,71
			z"/>
		<path class="st0" d="M292.4,69.4c0.7-0.7,1.6-1.1,2.6-1.2c1.6,0,3.1,1.2,3.4,2.8h-1c-0.3-1.1-1.3-1.8-2.4-1.7
			c-0.7,0-1.4,0.3-1.9,0.8c-1,1.1-1,2.8,0,3.9c0.5,0.5,1.2,0.8,1.9,0.8c1.1,0,2.1-0.7,2.4-1.8h1c-0.4,2-2.3,3.2-4.2,2.8
			c-0.7-0.2-1.3-0.5-1.8-1C291.1,73.3,291.1,70.9,292.4,69.4L292.4,69.4z"/>
	</g>
</g>
</svg>
